<svg width="32" height="32" viewBox="0 0 40 40" fill="none" stroke="#6B4C3B" stroke-width="1.5" stroke-linecap="round" stroke-linejoin="round" xmlns="http://www.w3.org/2000/svg">
  <path d="M20 3 L18 9 L17 15 L15.5 21 L13.5 26 L11 30 L9 34.5 L31 34.5 L29 30 L26.5 26 L24.5 21 L23 15 L22 9 Z"/>
  <path d="M8 18 L6.5 24 L5 30 L3.5 34.5 L12.5 34.5 L11 30 L9.5 24 Z"/>
  <path d="M32 18 L30.5 24 L29 30 L27.5 34.5 L36.5 34.5 L35 30 L33.5 24 Z"/>
  <line x1="15.5" y1="21" x2="24.5" y2="21"/>
  <line x1="13.5" y1="26" x2="26.5" y2="26"/>
  <line x1="11" y1="30" x2="29" y2="30"/>
  <line x1="9" y1="34.5" x2="31" y2="34.5"/>
  <line x1="18" y1="12" x2="22" y2="12"/>
  <circle cx="20" cy="16" r="1"/>
  <path d="M18 34.5 L18 31.5 Q20 29.5 22 31.5 L22 34.5"/>
</svg>
